name C:\Users\u0101727\Documents\MyRepositories\upper-imu-dc\Results\main_tracking\Case_48\kinematics_filtered.mot
datacolumns 10
datarows 56
range 6.30000000 6.85000000
endheader 
time	clav_prot	clav_elev	scapula_abduction	scapula_elevation	scapula_upward_rot	scapula_winging	plane_elv	shoulder_elv	axial_rot	
          6.30000000	        -42.05545215	          9.45450391	         -4.13147672	         -2.21013103	         72.85827518	        -11.97690994	         29.16618607	         88.61559728	          2.09562416	
          6.31000000	        -42.05330766	          9.42745889	         -3.98047615	         -2.21759218	         73.03277128	        -11.95289543	         29.39484598	         88.63536677	          2.06303474	
          6.32000000	        -42.05058626	          9.40044768	         -3.82832367	         -2.22478557	         73.20760730	        -11.92825818	         29.62433246	         88.65256476	          2.03450829	
          6.33000000	        -42.04759667	          9.37363086	         -3.67550617	         -2.23162063	         73.38287687	        -11.90320916	         29.85449101	         88.66718034	          2.00981256	
          6.34000000	        -42.04465137	          9.34715641	         -3.52253042	         -2.23801661	         73.55865304	        -11.87795996	         30.08510648	         88.67923195	          1.98861939	
          6.35000000	        -42.04206116	          9.32115744	         -3.36991918	         -2.24390428	         73.73498106	        -11.85271986	         30.31590921	         88.68877546	          1.97050356	
          6.36000000	        -42.04012941	          9.29574971	         -3.21820548	         -2.24922767	         73.91187259	        -11.82769263	         30.54658179	         88.69591090	          1.95494581	
          6.37000000	        -42.03914586	          9.27102915	         -3.06792471	         -2.25394565	         74.08930174	        -11.80307286	         30.77676607	         88.70078740	          1.94134108	
          6.38000000	        -42.03938031	          9.24706976	         -2.91960480	         -2.25803319	         74.26720322	        -11.77904226	         31.00607030	         88.70360587	          1.92901253	
          6.39000000	        -42.04107640	          9.22392222	         -2.77375493	         -2.26148192	         74.44547293	        -11.75576588	         31.23407624	         88.70461933	          1.91723145	
          6.40000000	        -42.04444595	          9.20161382	         -2.63085363	         -2.26429973	         74.62397065	        -11.73338885	         31.46034623	         88.70413054	          1.90524223	
          6.41000000	        -42.04966414	          9.18014974	         -2.49133728	         -2.26650933	         74.80252452	        -11.71203366	         31.68443048	         88.70248725	          1.89229093	
          6.42000000	        -42.05686580	          9.15951587	         -2.35558982	         -2.26814583	         74.98093701	        -11.69179840	         31.90587417	         88.70007505	          1.87765533	
          6.43000000	        -42.06614307	          9.13968272	         -2.22393417	         -2.26925346	         75.15899170	        -11.67275578	         32.12422467	         88.69730842	          1.86067391	
          6.44000000	        -42.07754423	          9.12061002	         -2.09662553	         -2.26988189	         75.33646063	        -11.65495300	         32.33903829	         88.69462022	          1.84077110	
          6.45000000	        -42.09107384	          9.10225144	         -1.97384664	         -2.27008256	         75.51311189	        -11.63841220	         32.54988673	         88.69245012	          1.81747679	
          6.46000000	        -42.10669373	          9.08455899	         -1.85570443	         -2.26990513	         75.68871722	        -11.62313128	         32.75636305	         88.69123236	          1.79043849	
          6.47000000	        -42.12432504	          9.06748664	         -1.74222805	         -2.26939458	         75.86305982	        -11.60908500	         32.95808717	         88.69138334	          1.75942549	
          6.48000000	        -42.14385078	          9.05099325	         -1.63336794	         -2.26858875	         76.03594180	        -11.59622611	         33.15471107	         88.69328926	          1.72432537	
          6.49000000	        -42.16511914	          9.03504449	         -1.52899603	         -2.26751661	         76.20719143	        -11.58448671	         33.34592393	         88.69729454	          1.68513374	
          6.50000000	        -42.18794711	          9.01961402	         -1.42890725	         -2.26619708	         76.37666939	        -11.57377958	         33.53145706	         88.70369141	          1.64193870	
          6.51000000	        -42.21212452	          9.00468391	         -1.33282236	         -2.26463854	         76.54427372	        -11.56399961	         33.71108887	         88.71271134	          1.59490177	
          6.52000000	        -42.23741805	          8.99024411	         -1.24039241	         -2.26283906	         76.70994278	        -11.55502537	         33.88464939	         88.72451882	          1.54423699	
          6.53000000	        -42.26357525	          8.97629108	         -1.15120452	         -2.26078740	         76.87365585	        -11.54672055	         34.05202418	         88.73920789	          1.49018984	
          6.54000000	        -42.29032804	          8.96282537	         -1.06478905	         -2.25846497	         77.03543109	        -11.53893532	         34.21315704	         88.75680168	          1.43301735	
          6.55000000	        -42.31739578	          8.94984810	         -0.98062746	         -2.25584868	         77.19532086	        -11.53150744	         34.36805134	         88.77725485	          1.37297038	
          6.56000000	        -42.34448763	          8.93735665	         -0.89816092	         -2.25291451	         77.35340466	        -11.52426312	         34.51676945	         88.80045877	          1.31027898	
          6.57000000	        -42.37130426	          8.92533964	         -0.81679906	         -2.24964176	         77.50978000	        -11.51701770	         34.65943041	         88.82624904	          1.24514126	
          6.58000000	        -42.39753905	          8.91377177	         -0.73592901	         -2.24601750	         77.66455212	        -11.50957623	         34.79620579	         88.85441485	          1.17771584	
          6.59000000	        -42.42287926	          8.90260903	         -0.65492461	         -2.24204080	         77.81782296	        -11.50173424	         34.92731399	         88.88470957	          1.10811801	
          6.60000000	        -42.44700723	          8.89178478	         -0.57315615	         -2.23772657	         77.96968053	        -11.49327898	         35.05301348	         88.91686196	          1.03641911	
          6.61000000	        -42.46960251	          8.88120700	         -0.49000057	         -2.23310843	         78.12018925	        -11.48399131	         35.17359521	         88.95058737	          0.96264871	
          6.62000000	        -42.49034483	          8.87075715	         -0.40485264	         -2.22824060	         78.26938217	        -11.47364848	         35.28937483	         88.98559839	          0.88679891	
          6.63000000	        -42.50891854	          8.86029052	         -0.31713675	         -2.22319867	         78.41725540	        -11.46202794	         35.40068486	         89.02161448	          0.80883019	
          6.64000000	        -42.52501832	          8.84963817	         -0.22631956	         -2.21807916	         78.56376513	        -11.44891198	         35.50786720	         89.05837023	          0.72867798	
          6.65000000	        -42.53835614	          8.83861023	         -0.13192289	         -2.21299806	         78.70882732	        -11.43409319	         35.61126607	         89.09562212	          0.64625949	
          6.66000000	        -42.54866898	          8.82700045	         -0.03353656	         -2.20808840	         78.85231960	        -11.41738042	         35.71122162	         89.13315369	          0.56148030	
          6.67000000	        -42.55572697	          8.81459183	          0.06916939	         -2.20349686	         78.99408523	        -11.39860494	         35.80806399	         89.17077914	          0.47424032	
          6.68000000	        -42.55934134	          8.80116320	          0.17643364	         -2.19937961	         79.13393843	        -11.37762650	         35.90210806	         89.20834550	          0.38443903	
          6.69000000	        -42.55937159	          8.78649662	          0.28839421	         -2.19589744	         79.27167066	        -11.35433899	         35.99364881	         89.24573341	          0.29197983	
          6.70000000	        -42.55573156	          8.77038552	          0.40508112	         -2.19321015	         79.40705708	        -11.32867545	         36.08295727	         89.28285659	          0.19677356	
          6.71000000	        -42.54839384	          8.75264342	          0.52641150	         -2.19147048	         79.53986304	        -11.30061218	         36.17027722	         89.31966022	          0.09874150	
          6.72000000	        -42.53739237	          8.73311298	          0.65218721	         -2.19081766	         79.66984987	        -11.27017183	         36.25582260	         89.35611824	         -0.00218226	
          6.73000000	        -42.52282305	          8.71167498	          0.78209535	         -2.19137082	         79.79677982	        -11.23742532	         36.33977578	         89.39222977	         -0.10604850	
          6.74000000	        -42.50484222	          8.68825679	          0.91571151	         -2.19322272	         79.92042008	        -11.20249239	         36.42228670	         89.42801481	         -0.21289066	
          6.75000000	        -42.48366325	          8.66283961	          1.05250607	         -2.19643420	         80.04054567	        -11.16554076	         36.50347303	         89.46350935	         -0.32272223	
          6.76000000	        -42.45955126	          8.63546389	          1.19185332	         -2.20102975	         80.15694158	        -11.12678379	         36.58342126	         89.49876008	         -0.43553371	
          6.77000000	        -42.43281638	          8.60623246	          1.33304335	         -2.20699454	         80.26940430	        -11.08647673	         36.66218883	         89.53381894	         -0.55128885	
          6.78000000	        -42.40380600	          8.57531080	          1.47529622	         -2.21427335	         80.37774308	        -11.04491161	         36.73980719	         89.56873750	         -0.66991996	
          6.79000000	        -42.37289626	          8.54292439	          1.61777817	         -2.22277138	         80.48178127	        -11.00241097	         36.81628555	         89.60356162	         -0.79132229	
          6.80000000	        -42.34048354	          8.50935318	          1.75961898	         -2.23235700	         80.58135794	        -10.95932078	         36.89161510	         89.63832635	         -0.91534728	
          6.81000000	        -42.30697598	          8.47492323	          1.89992994	         -2.24286635	         80.67632967	        -10.91600273	         36.96577330	         89.67305165	         -1.04179486	
          6.82000000	        -42.27278560	          8.43999631	          2.03782170	         -2.25410944	         80.76657266	        -10.87282621	         37.03872775	         89.70773896	         -1.17040497	
          6.83000000	        -42.23832109	          8.40495762	          2.17242123	         -2.26587751	         80.85198462	        -10.83016043	         37.11043929	         89.74236896	         -1.30084873	
          6.84000000	        -42.20398129	          8.37020282	          2.30288748	         -2.27795111	         80.93248640	        -10.78836675	         37.18086391	         89.77690070	         -1.43271987	
          6.85000000	        -42.17014958	          8.33612472	          2.42842528	         -2.29010837	         81.00802303	        -10.74779165	         37.24995339	         89.81127189	         -1.56552716	
